<svg xmlns="http://www.w3.org/2000/svg" xmlns:xlink="http://www.w3.org/1999/xlink" width="500" zoomAndPan="magnify" viewBox="0 0 375 374.999991" height="500" preserveAspectRatio="xMidYMid meet" version="1.2"><defs><clipPath id="a889e9c5af"><path d="M 12.589844 4.824219 L 362.089844 4.824219 L 362.089844 224 L 12.589844 224 Z M 12.589844 4.824219 "/></clipPath></defs><g id="efa5c8a393"><g clip-rule="nonzero" clip-path="url(#a889e9c5af)"><path style=" stroke:none;fill-rule:evenodd;fill:#f8b400;fill-opacity:1;" d="M 187.367188 4.929688 C 283.816406 4.929688 362.082031 83.246094 362.082031 179.757812 C 362.082031 194.820312 360.195312 209.425781 356.605469 223.316406 C 357 218.753906 357.191406 214.121094 357.191406 209.492188 C 357.191406 115.652344 281.144531 39.554688 187.367188 39.554688 C 93.585938 39.554688 17.46875 115.652344 17.46875 209.492188 C 17.46875 214.125 17.667969 218.753906 18.0625 223.316406 C 14.472656 209.425781 12.582031 194.820312 12.582031 179.757812 C 12.582031 83.246094 90.851562 4.929688 187.367188 4.929688 Z M 187.367188 4.929688 "/></g><path style=" stroke:none;fill-rule:evenodd;fill:#005f9f;fill-opacity:1;" d="M 187.367188 49.074219 C 275.867188 49.074219 347.679688 120.871094 347.679688 209.492188 C 347.679688 298.117188 275.867188 369.972656 187.367188 369.972656 C 150.871094 369.972656 117.3125 357.777344 90.332031 337.238281 C 112.226562 349.367188 137.382812 356.28125 164.167969 356.28125 C 248.492188 356.28125 316.855469 287.875 316.855469 203.492188 C 316.855469 119.109375 248.625 50.835938 164.425781 50.707031 C 171.917969 49.597656 179.546875 49.074219 187.363281 49.074219 Z M 187.367188 49.074219 "/><path style=" stroke:none;fill-rule:evenodd;fill:#67b62e;fill-opacity:1;" d="M 304.082031 218.949219 C 296.390625 289.4375 236.699219 344.347656 164.167969 344.347656 C 86.421875 344.347656 23.402344 281.289062 23.402344 203.492188 C 23.402344 174.796875 32.007812 148.128906 46.667969 125.828125 C 40.089844 141.933594 36.4375 159.476562 36.4375 177.929688 C 36.4375 253.574219 97.761719 314.933594 173.421875 314.933594 C 234.742188 314.933594 286.613281 274.570312 304.082031 218.949219 Z M 304.082031 218.949219 "/><path style=" stroke:none;fill-rule:evenodd;fill:#1e89ca;fill-opacity:1;" d="M 61.261719 114.871094 C 97.300781 56.769531 173.613281 38.839844 231.679688 74.898438 C 240.738281 80.507812 248.753906 87.089844 255.792969 94.394531 C 253.183594 92.503906 250.515625 90.613281 247.710938 88.917969 C 191.277344 53.898438 117.113281 71.3125 82.121094 127.78125 C 47.125 184.253906 64.527344 258.464844 120.960938 293.480469 C 123.761719 295.242188 126.5625 296.804688 129.496094 298.304688 C 119.789062 295.242188 110.277344 290.9375 101.28125 285.332031 C 43.148438 249.332031 25.292969 172.972656 61.265625 114.871094 Z M 61.261719 114.871094 "/><path style=" stroke:none;fill-rule:evenodd;fill:#373434;fill-opacity:1;" d="M 125.582031 222.21875 L 125.582031 151.082031 C 125.582031 149.734375 126.1875 148.519531 127.140625 147.699219 C 124.855469 146.605469 123.277344 144.273438 123.277344 141.574219 C 123.277344 138.871094 124.855469 136.539062 127.140625 135.449219 C 126.1875 134.628906 125.582031 133.414062 125.582031 132.066406 L 125.582031 60.929688 L 123.902344 60.929688 C 121.011719 60.929688 118.648438 58.566406 118.648438 55.679688 C 118.648438 52.789062 121.011719 50.425781 123.902344 50.425781 L 251.265625 50.425781 C 254.152344 50.425781 256.519531 52.789062 256.519531 55.679688 C 256.519531 58.566406 254.152344 60.929688 251.265625 60.929688 L 249.582031 60.929688 L 249.582031 132.066406 C 249.582031 133.179688 249.171875 134.199219 248.492188 134.988281 C 248.464844 135.019531 248.4375 135.050781 248.410156 135.078125 L 248.40625 135.082031 L 248.371094 135.121094 L 248.363281 135.125 C 248.351562 135.140625 248.339844 135.152344 248.328125 135.164062 L 248.328125 135.167969 C 248.257812 135.234375 248.191406 135.304688 248.117188 135.367188 L 248.109375 135.375 L 248.074219 135.40625 L 248.066406 135.414062 L 248.03125 135.445312 L 248.027344 135.449219 C 248.328125 135.59375 248.617188 135.761719 248.894531 135.945312 L 248.898438 135.949219 C 248.996094 136.015625 249.09375 136.082031 249.1875 136.152344 L 249.191406 136.15625 C 250.832031 137.394531 251.890625 139.359375 251.890625 141.574219 C 251.890625 143.621094 250.984375 145.457031 249.546875 146.703125 L 249.542969 146.703125 C 249.402344 146.824219 249.257812 146.941406 249.105469 147.054688 L 249.066406 147.082031 C 249.039062 147.101562 249.015625 147.117188 248.988281 147.136719 L 248.980469 147.144531 C 248.925781 147.183594 248.867188 147.21875 248.8125 147.257812 L 248.808594 147.257812 C 248.710938 147.320312 248.609375 147.382812 248.507812 147.445312 L 248.5 147.449219 C 248.402344 147.503906 248.300781 147.5625 248.195312 147.613281 L 248.179688 147.621094 C 248.152344 147.636719 248.125 147.648438 248.097656 147.664062 L 248.09375 147.664062 C 248.070312 147.675781 248.050781 147.6875 248.027344 147.699219 L 248.035156 147.703125 L 248.0625 147.730469 L 248.082031 147.746094 L 248.109375 147.769531 L 248.117188 147.78125 L 248.148438 147.808594 L 248.164062 147.820312 L 248.195312 147.851562 L 248.203125 147.855469 C 248.230469 147.882812 248.257812 147.910156 248.285156 147.9375 L 248.328125 147.980469 L 248.363281 148.019531 L 248.371094 148.03125 L 248.410156 148.070312 L 248.441406 148.105469 L 248.449219 148.113281 C 248.464844 148.128906 248.476562 148.144531 248.492188 148.160156 C 249.171875 148.945312 249.582031 149.96875 249.582031 151.082031 L 249.582031 222.21875 L 251.265625 222.21875 C 254.152344 222.21875 256.519531 224.582031 256.519531 227.46875 C 256.519531 230.359375 254.152344 232.722656 251.265625 232.722656 L 123.902344 232.722656 C 121.011719 232.722656 118.648438 230.359375 118.648438 227.46875 C 118.648438 224.582031 121.011719 222.21875 123.902344 222.21875 Z M 225.191406 211.710938 L 149.9375 211.710938 L 149.507812 209.671875 C 148.984375 207.265625 148.71875 204.816406 148.71875 202.351562 C 148.71875 179.074219 157.074219 158.65625 179.519531 148.921875 C 187.597656 145.929688 187.59375 137.214844 179.519531 134.226562 C 160.355469 125.914062 148.71875 106.34375 148.71875 85.664062 C 148.71875 81.570312 149.15625 77.460938 150.105469 73.476562 L 150.628906 71.433594 L 224.527344 71.433594 L 225.0625 73.476562 C 226.011719 77.460938 226.445312 81.570312 226.445312 85.664062 C 226.445312 106.34375 214.808594 125.914062 195.648438 134.226562 C 187.574219 137.214844 187.570312 145.929688 195.648438 148.921875 C 218.09375 158.65625 226.445312 179.074219 226.445312 202.351562 C 226.445312 204.816406 226.183594 207.265625 225.65625 209.671875 Z M 228.503906 222.21875 L 240.632812 222.21875 L 240.632812 151.082031 C 240.632812 149.734375 241.238281 148.519531 242.191406 147.699219 C 239.90625 146.605469 238.324219 144.273438 238.324219 141.574219 C 238.324219 138.871094 239.90625 136.539062 242.191406 135.449219 C 241.238281 134.628906 240.632812 133.414062 240.632812 132.066406 L 240.632812 60.929688 L 228.503906 60.929688 C 231.394531 60.929688 233.757812 63.292969 233.757812 66.183594 C 233.757812 69.070312 231.394531 71.433594 228.503906 71.433594 L 226.792969 71.433594 C 228.015625 75.917969 228.632812 80.714844 228.632812 85.664062 C 228.632812 108.515625 215.335938 128.09375 196.460938 136.253906 C 190.21875 138.53125 190.210938 144.613281 196.460938 146.894531 C 220.476562 157.277344 228.632812 179.199219 228.632812 202.351562 C 228.632812 205.578125 228.207031 208.714844 227.410156 211.710938 L 228.503906 211.710938 C 231.394531 211.710938 233.757812 214.078125 233.757812 216.964844 C 233.757812 219.855469 231.394531 222.21875 228.503906 222.21875 Z M 188.53125 141.023438 C 188.527344 141.023438 188.226562 160.960938 188.664062 163.167969 C 189.246094 166.089844 191.175781 168.828125 195.121094 170.300781 C 212.996094 178.0625 221.636719 192.773438 224.195312 210.304688 L 150.96875 210.304688 C 153.53125 192.773438 162.171875 178.0625 180.046875 170.300781 C 183.984375 168.828125 185.917969 166.097656 186.5 163.183594 C 186.941406 160.972656 186.640625 141.023438 186.632812 141.023438 C 186.402344 137.746094 184.425781 134.554688 180.046875 132.917969 C 170.738281 128.875 163.269531 122.097656 158.121094 113.824219 C 157.820312 113.34375 157.53125 112.859375 157.25 112.367188 C 177.570312 110.230469 193.730469 128.230469 214.386719 117.6875 C 209.449219 124.203125 202.933594 129.523438 195.121094 132.917969 C 190.742188 134.554688 188.765625 137.75 188.53125 141.023438 Z M 132.976562 135.449219 C 133.277344 135.59375 133.566406 135.761719 133.84375 135.945312 L 133.847656 135.949219 C 133.945312 136.015625 134.042969 136.082031 134.136719 136.152344 L 134.140625 136.15625 C 135.78125 137.394531 136.839844 139.359375 136.839844 141.574219 C 136.839844 143.621094 135.933594 145.457031 134.496094 146.703125 C 134.351562 146.824219 134.207031 146.941406 134.054688 147.054688 L 134.015625 147.082031 C 133.988281 147.101562 133.964844 147.117188 133.9375 147.136719 L 133.929688 147.144531 C 133.875 147.183594 133.816406 147.21875 133.761719 147.257812 C 133.660156 147.320312 133.558594 147.382812 133.457031 147.445312 L 133.449219 147.449219 C 133.351562 147.503906 133.25 147.5625 133.144531 147.613281 L 133.128906 147.621094 C 133.101562 147.636719 133.074219 147.648438 133.046875 147.664062 L 133.042969 147.664062 C 133.023438 147.675781 133 147.6875 132.976562 147.699219 L 132.984375 147.703125 L 133.011719 147.730469 L 133.03125 147.746094 L 133.058594 147.769531 L 133.097656 147.808594 L 133.113281 147.820312 L 133.144531 147.851562 L 133.152344 147.855469 C 133.179688 147.882812 133.207031 147.910156 133.234375 147.9375 L 133.277344 147.980469 L 133.3125 148.019531 L 133.320312 148.03125 L 133.359375 148.070312 L 133.390625 148.105469 L 133.398438 148.113281 C 133.414062 148.128906 133.425781 148.144531 133.441406 148.160156 C 134.121094 148.945312 134.53125 149.96875 134.53125 151.082031 L 134.53125 222.21875 L 146.660156 222.21875 C 143.773438 222.21875 141.410156 219.855469 141.410156 216.964844 C 141.410156 214.078125 143.773438 211.710938 146.660156 211.710938 L 147.753906 211.710938 C 146.960938 208.714844 146.535156 205.578125 146.535156 202.351562 C 146.535156 179.199219 154.691406 157.277344 178.707031 146.894531 C 184.957031 144.613281 184.949219 138.53125 178.707031 136.253906 C 159.832031 128.09375 146.535156 108.515625 146.535156 85.664062 C 146.535156 80.714844 147.148438 75.917969 148.371094 71.433594 L 146.660156 71.433594 C 143.773438 71.433594 141.410156 69.070312 141.410156 66.183594 C 141.410156 63.292969 143.773438 60.929688 146.660156 60.929688 L 134.53125 60.929688 L 134.53125 132.066406 C 134.53125 133.179688 134.121094 134.199219 133.441406 134.988281 C 133.414062 135.019531 133.386719 135.050781 133.359375 135.078125 L 133.355469 135.082031 L 133.320312 135.121094 L 133.3125 135.125 C 133.300781 135.140625 133.289062 135.152344 133.277344 135.164062 L 133.277344 135.167969 C 133.207031 135.234375 133.140625 135.304688 133.066406 135.367188 L 133.027344 135.40625 L 133.015625 135.414062 L 132.980469 135.445312 L 132.976562 135.449219 "/><g style="fill:#000000;fill-opacity:1;"><g transform="translate(80.993677, 168.142721)"><path style="stroke:none" d="M 1.328125 -12.046875 L 5.03125 -12.046875 L 5.03125 -11.046875 L 2.375 -11.046875 L 2.375 -8.96875 L 4.015625 -8.96875 L 4.015625 -8.046875 L 2.375 -8.046875 L 2.375 -1.015625 L 5.03125 -1.015625 L 5.03125 0 L 1.328125 0 Z M 1.328125 -12.046875 "/></g></g><g style="fill:#000000;fill-opacity:1;"><g transform="translate(88.138984, 168.142721)"><path style="stroke:none" d="M 3.609375 -6.921875 C 3.992188 -6.546875 4.332031 -6.171875 4.625 -5.796875 C 4.925781 -5.421875 5.164062 -5.015625 5.34375 -4.578125 C 5.519531 -4.148438 5.609375 -3.65625 5.609375 -3.09375 C 5.609375 -2.125 5.351562 -1.335938 4.84375 -0.734375 C 4.34375 -0.128906 3.6875 0.171875 2.875 0.171875 C 2.28125 0.171875 1.785156 0.046875 1.390625 -0.203125 C 1.003906 -0.453125 0.628906 -0.847656 0.265625 -1.390625 L 1.1875 -1.90625 C 1.488281 -1.507812 1.765625 -1.238281 2.015625 -1.09375 C 2.265625 -0.957031 2.566406 -0.890625 2.921875 -0.890625 C 3.296875 -0.890625 3.585938 -0.960938 3.796875 -1.109375 C 4.003906 -1.253906 4.160156 -1.4375 4.265625 -1.65625 C 4.378906 -1.882812 4.453125 -2.113281 4.484375 -2.34375 C 4.523438 -2.582031 4.546875 -2.796875 4.546875 -2.984375 C 4.546875 -3.390625 4.488281 -3.75 4.375 -4.0625 C 4.269531 -4.382812 4.097656 -4.695312 3.859375 -5 C 3.628906 -5.3125 3.316406 -5.65625 2.921875 -6.03125 C 2.347656 -6.59375 1.867188 -7.160156 1.484375 -7.734375 C 1.097656 -8.316406 0.898438 -9.015625 0.890625 -9.828125 C 0.878906 -10.597656 1.078125 -11.203125 1.484375 -11.640625 C 1.890625 -12.078125 2.375 -12.296875 2.9375 -12.296875 C 3.4375 -12.296875 3.847656 -12.164062 4.171875 -11.90625 C 4.492188 -11.65625 4.773438 -11.253906 5.015625 -10.703125 L 4.015625 -10.296875 C 3.835938 -10.648438 3.675781 -10.894531 3.53125 -11.03125 C 3.382812 -11.164062 3.1875 -11.234375 2.9375 -11.234375 C 2.625 -11.234375 2.378906 -11.109375 2.203125 -10.859375 C 2.035156 -10.609375 1.957031 -10.269531 1.96875 -9.84375 C 1.976562 -9.25 2.140625 -8.726562 2.453125 -8.28125 C 2.765625 -7.832031 3.148438 -7.378906 3.609375 -6.921875 Z M 3.609375 -6.921875 "/></g></g><g style="fill:#000000;fill-opacity:1;"><g transform="translate(95.680271, 168.142721)"><path style="stroke:none" d="M 3.53125 -11.046875 L 3.53125 0 L 2.484375 0 L 2.484375 -11.046875 L 0.328125 -11.046875 L 0.328125 -12.046875 L 5.6875 -12.046875 L 5.6875 -11.046875 Z M 3.53125 -11.046875 "/></g></g><g style="fill:#000000;fill-opacity:1;"><g transform="translate(103.290423, 168.142721)"><path style="stroke:none" d="M 2.4375 -12.046875 C 3.300781 -12.046875 4.046875 -11.8125 4.671875 -11.34375 C 5.296875 -10.875 5.773438 -10.203125 6.109375 -9.328125 C 6.453125 -8.460938 6.625 -7.421875 6.625 -6.203125 C 6.625 -5.441406 6.550781 -4.691406 6.40625 -3.953125 C 6.257812 -3.222656 6.019531 -2.554688 5.6875 -1.953125 C 5.351562 -1.359375 4.914062 -0.882812 4.375 -0.53125 C 3.84375 -0.175781 3.195312 0 2.4375 0 L 1.296875 0 L 1.296875 -12.046875 Z M 5.546875 -6.203125 C 5.546875 -7.847656 5.257812 -9.0625 4.6875 -9.84375 C 4.113281 -10.632812 3.398438 -11.035156 2.546875 -11.046875 L 2.34375 -11.046875 L 2.34375 -1.015625 L 2.40625 -1.015625 C 3.46875 -1.023438 4.253906 -1.457031 4.765625 -2.3125 C 5.285156 -3.164062 5.546875 -4.460938 5.546875 -6.203125 Z M 5.546875 -6.203125 "/></g></g><g style="fill:#000000;fill-opacity:1;"><g transform="translate(112.042084, 168.142721)"><path style="stroke:none" d=""/></g></g><g style="fill:#000000;fill-opacity:1;"><g transform="translate(260.373971, 168.142721)"><path style="stroke:none" d="M 5.578125 -0.9375 L 5.578125 0 L 0.34375 0 L 0.34375 -0.84375 L 3.375 -6.984375 C 3.601562 -7.441406 3.78125 -7.8125 3.90625 -8.09375 C 4.039062 -8.375 4.132812 -8.625 4.1875 -8.84375 C 4.238281 -9.070312 4.265625 -9.328125 4.265625 -9.609375 C 4.265625 -9.972656 4.140625 -10.253906 3.890625 -10.453125 C 3.640625 -10.648438 3.34375 -10.75 3 -10.75 C 2.601562 -10.75 2.285156 -10.632812 2.046875 -10.40625 C 1.816406 -10.1875 1.601562 -9.828125 1.40625 -9.328125 L 0.4375 -9.625 C 0.726562 -10.414062 1.101562 -10.96875 1.5625 -11.28125 C 2.03125 -11.59375 2.539062 -11.75 3.09375 -11.75 C 3.4375 -11.75 3.78125 -11.671875 4.125 -11.515625 C 4.476562 -11.359375 4.769531 -11.117188 5 -10.796875 C 5.226562 -10.472656 5.34375 -10.0625 5.34375 -9.5625 C 5.34375 -9.28125 5.304688 -9.007812 5.234375 -8.75 C 5.171875 -8.5 5.066406 -8.210938 4.921875 -7.890625 C 4.785156 -7.566406 4.597656 -7.164062 4.359375 -6.6875 L 1.5 -0.9375 Z M 5.578125 -0.9375 "/></g></g><g style="fill:#000000;fill-opacity:1;"><g transform="translate(268.001332, 168.142721)"><path style="stroke:none" d="M 3.421875 0.171875 C 2.835938 0.171875 2.335938 -0.0234375 1.921875 -0.421875 C 1.503906 -0.816406 1.179688 -1.453125 0.953125 -2.328125 C 0.722656 -3.203125 0.609375 -4.351562 0.609375 -5.78125 C 0.609375 -7.21875 0.722656 -8.375 0.953125 -9.25 C 1.179688 -10.125 1.503906 -10.757812 1.921875 -11.15625 C 2.335938 -11.550781 2.835938 -11.75 3.421875 -11.75 C 4.023438 -11.75 4.535156 -11.550781 4.953125 -11.15625 C 5.367188 -10.757812 5.6875 -10.125 5.90625 -9.25 C 6.132812 -8.375 6.25 -7.21875 6.25 -5.78125 C 6.25 -4.351562 6.132812 -3.203125 5.90625 -2.328125 C 5.6875 -1.453125 5.367188 -0.816406 4.953125 -0.421875 C 4.535156 -0.0234375 4.023438 0.171875 3.421875 0.171875 Z M 3.421875 -0.828125 C 3.796875 -0.828125 4.097656 -0.976562 4.328125 -1.28125 C 4.554688 -1.59375 4.734375 -2 4.859375 -2.5 C 4.984375 -3 5.066406 -3.539062 5.109375 -4.125 C 5.160156 -4.707031 5.1875 -5.257812 5.1875 -5.78125 C 5.1875 -6.320312 5.160156 -6.878906 5.109375 -7.453125 C 5.066406 -8.023438 4.984375 -8.5625 4.859375 -9.0625 C 4.734375 -9.5625 4.554688 -9.96875 4.328125 -10.28125 C 4.097656 -10.59375 3.796875 -10.75 3.421875 -10.75 C 3.054688 -10.75 2.757812 -10.59375 2.53125 -10.28125 C 2.300781 -9.96875 2.125 -9.5625 2 -9.0625 C 1.875 -8.5625 1.785156 -8.023438 1.734375 -7.453125 C 1.691406 -6.878906 1.671875 -6.320312 1.671875 -5.78125 C 1.671875 -5.257812 1.691406 -4.707031 1.734375 -4.125 C 1.785156 -3.539062 1.875 -3 2 -2.5 C 2.125 -2 2.300781 -1.59375 2.53125 -1.28125 C 2.757812 -0.976562 3.054688 -0.828125 3.421875 -0.828125 Z M 3.421875 -0.828125 "/></g></g><g style="fill:#000000;fill-opacity:1;"><g transform="translate(276.45509, 168.142721)"><path style="stroke:none" d="M 5.578125 -0.9375 L 5.578125 0 L 0.34375 0 L 0.34375 -0.84375 L 3.375 -6.984375 C 3.601562 -7.441406 3.78125 -7.8125 3.90625 -8.09375 C 4.039062 -8.375 4.132812 -8.625 4.1875 -8.84375 C 4.238281 -9.070312 4.265625 -9.328125 4.265625 -9.609375 C 4.265625 -9.972656 4.140625 -10.253906 3.890625 -10.453125 C 3.640625 -10.648438 3.34375 -10.75 3 -10.75 C 2.601562 -10.75 2.285156 -10.632812 2.046875 -10.40625 C 1.816406 -10.1875 1.601562 -9.828125 1.40625 -9.328125 L 0.4375 -9.625 C 0.726562 -10.414062 1.101562 -10.96875 1.5625 -11.28125 C 2.03125 -11.59375 2.539062 -11.75 3.09375 -11.75 C 3.4375 -11.75 3.78125 -11.671875 4.125 -11.515625 C 4.476562 -11.359375 4.769531 -11.117188 5 -10.796875 C 5.226562 -10.472656 5.34375 -10.0625 5.34375 -9.5625 C 5.34375 -9.28125 5.304688 -9.007812 5.234375 -8.75 C 5.171875 -8.5 5.066406 -8.210938 4.921875 -7.890625 C 4.785156 -7.566406 4.597656 -7.164062 4.359375 -6.6875 L 1.5 -0.9375 Z M 5.578125 -0.9375 "/></g></g><g style="fill:#000000;fill-opacity:1;"><g transform="translate(284.082451, 168.142721)"><path style="stroke:none" d="M 3.109375 -7.328125 C 3.640625 -7.328125 4.078125 -7.210938 4.421875 -6.984375 C 4.773438 -6.765625 5.050781 -6.472656 5.25 -6.109375 C 5.457031 -5.753906 5.597656 -5.359375 5.671875 -4.921875 C 5.753906 -4.492188 5.796875 -4.082031 5.796875 -3.6875 C 5.796875 -2.46875 5.550781 -1.519531 5.0625 -0.84375 C 4.570312 -0.164062 3.894531 0.171875 3.03125 0.171875 C 2.332031 0.171875 1.769531 -0.0351562 1.34375 -0.453125 C 0.914062 -0.867188 0.625 -1.378906 0.46875 -1.984375 L 1.46875 -2.234375 C 1.59375 -1.828125 1.78125 -1.488281 2.03125 -1.21875 C 2.28125 -0.957031 2.613281 -0.828125 3.03125 -0.828125 C 3.4375 -0.828125 3.753906 -0.929688 3.984375 -1.140625 C 4.210938 -1.347656 4.378906 -1.597656 4.484375 -1.890625 C 4.597656 -2.191406 4.664062 -2.492188 4.6875 -2.796875 C 4.71875 -3.109375 4.734375 -3.367188 4.734375 -3.578125 C 4.734375 -3.878906 4.710938 -4.191406 4.671875 -4.515625 C 4.628906 -4.835938 4.550781 -5.140625 4.4375 -5.421875 C 4.320312 -5.703125 4.148438 -5.929688 3.921875 -6.109375 C 3.703125 -6.285156 3.40625 -6.375 3.03125 -6.375 C 2.675781 -6.375 2.414062 -6.332031 2.25 -6.25 C 2.082031 -6.164062 1.882812 -6.039062 1.65625 -5.875 L 0.90625 -5.875 L 0.90625 -11.578125 L 5.109375 -11.578125 L 5.109375 -10.640625 L 1.953125 -10.640625 L 1.953125 -6.921875 C 2.117188 -7.046875 2.300781 -7.144531 2.5 -7.21875 C 2.695312 -7.289062 2.898438 -7.328125 3.109375 -7.328125 Z M 3.109375 -7.328125 "/></g></g><g style="fill:#373434;fill-opacity:1;"><g transform="translate(2.287155, 155.025011)"><path style="stroke:none" d="M 9.546875 0.421875 C 9.316406 -0.171875 9.335938 -0.757812 9.609375 -1.34375 C 9.878906 -1.925781 10.3125 -2.332031 10.90625 -2.5625 C 11.488281 -2.789062 12.070312 -2.773438 12.65625 -2.515625 C 13.238281 -2.265625 13.644531 -1.84375 13.875 -1.25 C 14.09375 -0.664062 14.070312 -0.0820312 13.8125 0.5 C 13.5625 1.082031 13.144531 1.488281 12.5625 1.71875 C 11.96875 1.945312 11.367188 1.929688 10.765625 1.671875 C 10.171875 1.421875 9.765625 1.003906 9.546875 0.421875 Z M 9.546875 0.421875 "/></g></g><g style="fill:#373434;fill-opacity:1;"><g transform="translate(8.433214, 170.082069)"><path style="stroke:none" d=""/></g></g><g style="fill:#373434;fill-opacity:1;"><g transform="translate(15.790912, 185.019472)"><path style="stroke:none" d="M 30.265625 3.421875 L 30.796875 4.25 L 25.75 5.859375 L 25.1875 4.96875 C 26.445312 4.375 27.179688 3.796875 27.390625 3.234375 C 27.597656 2.679688 27.507812 2.09375 27.125 1.46875 L 25.390625 -1.25 L 9.21875 9.03125 C 8.664062 9.375 8.394531 9.800781 8.40625 10.3125 C 8.414062 10.832031 8.710938 11.625 9.296875 12.6875 L 8.40625 13.25 C 6.5625 10.15625 4.648438 7.140625 2.671875 4.203125 L 3.5625 3.640625 C 4.269531 4.617188 4.851562 5.21875 5.3125 5.4375 C 5.769531 5.664062 6.273438 5.609375 6.828125 5.265625 L 23 -5.015625 L 21.625 -7.171875 C 21.289062 -7.703125 20.941406 -8.085938 20.578125 -8.328125 C 20.210938 -8.578125 19.722656 -8.710938 19.109375 -8.734375 C 18.492188 -8.753906 17.648438 -8.707031 16.578125 -8.59375 L 16 -9.5 L 21.03125 -11.125 L 21.546875 -10.3125 C 21.722656 -9.78125 21.941406 -9.28125 22.203125 -8.8125 C 22.460938 -8.34375 22.851562 -7.703125 23.375 -6.890625 L 27.953125 0.34375 C 28.460938 1.132812 28.878906 1.75 29.203125 2.1875 C 29.523438 2.632812 29.878906 3.046875 30.265625 3.421875 Z M 30.265625 3.421875 "/></g></g><g style="fill:#373434;fill-opacity:1;"><g transform="translate(32.136372, 209.504688)"><path style="stroke:none" d="M 16.296875 9.390625 L 17.015625 10.21875 C 15.953125 10.632812 14.984375 11.101562 14.109375 11.625 C 13.234375 12.15625 12.390625 12.738281 11.578125 13.375 C 9.691406 11.125 7.867188 8.976562 6.109375 6.9375 C 4.347656 4.90625 2.515625 2.828125 0.609375 0.703125 L 1.40625 0.015625 C 2.144531 0.742188 2.738281 1.164062 3.1875 1.28125 C 3.632812 1.394531 4.101562 1.238281 4.59375 0.8125 L 18.140625 -10.921875 C 18.566406 -11.273438 18.722656 -11.65625 18.609375 -12.0625 C 18.503906 -12.476562 18.144531 -13.101562 17.53125 -13.9375 L 18.3125 -14.625 L 28.84375 -2.46875 C 29 -2.269531 29.066406 -2.113281 29.046875 -2 C 29.035156 -1.894531 28.9375 -1.742188 28.75 -1.546875 L 25.90625 1.6875 L 25.234375 0.921875 L 25.625 0.078125 C 26.101562 -0.960938 26.289062 -1.890625 26.1875 -2.703125 C 26.082031 -3.515625 25.601562 -4.414062 24.75 -5.40625 L 22.65625 -7.828125 C 22.289062 -8.242188 21.878906 -8.253906 21.421875 -7.859375 L 14.859375 -2.1875 L 17.796875 1.203125 C 18.421875 1.929688 19.007812 2.285156 19.5625 2.265625 C 20.113281 2.253906 20.753906 2.070312 21.484375 1.71875 L 22.109375 2.4375 C 20.421875 3.644531 18.851562 5 17.40625 6.5 L 16.78125 5.78125 C 17.238281 5.113281 17.515625 4.503906 17.609375 3.953125 C 17.710938 3.410156 17.453125 2.773438 16.828125 2.046875 L 13.890625 -1.34375 L 7.5 4.1875 C 7.007812 4.613281 6.726562 4.96875 6.65625 5.25 C 6.59375 5.539062 6.742188 5.898438 7.109375 6.328125 L 8.46875 7.890625 C 9.382812 8.953125 10.21875 9.625 10.96875 9.90625 C 11.71875 10.195312 12.582031 10.234375 13.5625 10.015625 Z M 16.296875 9.390625 "/></g></g><g style="fill:#373434;fill-opacity:1;"><g transform="translate(51.477542, 231.260365)"><path style="stroke:none" d="M 21.96875 13.96875 C 21.476562 14.570312 21.304688 15.101562 21.453125 15.5625 C 21.609375 16.03125 22.050781 16.609375 22.78125 17.296875 L 22.109375 18.125 C 19.648438 15.945312 17.09375 13.851562 14.4375 11.84375 L 15.109375 11.015625 C 15.960938 11.609375 16.625 11.929688 17.09375 11.984375 C 17.570312 12.035156 18.054688 11.757812 18.546875 11.15625 L 28.96875 -1.5625 L 10.96875 9 L 10.578125 8.671875 L 16.84375 -11.5 L 6.421875 1.21875 C 5.929688 1.820312 5.863281 2.429688 6.21875 3.046875 C 6.570312 3.660156 7.171875 4.375 8.015625 5.1875 L 7.34375 6.015625 C 5.070312 3.992188 2.769531 2.109375 0.4375 0.359375 L 1.109375 -0.46875 C 2.085938 0.207031 2.898438 0.644531 3.546875 0.84375 C 4.191406 1.050781 4.757812 0.851562 5.25 0.25 L 15.921875 -12.765625 C 16.835938 -13.890625 16.535156 -15.175781 15.015625 -16.625 L 15.671875 -17.4375 C 17.515625 -15.757812 19.4375 -14.179688 21.4375 -12.703125 L 16.1875 4.34375 L 31.34375 -4.578125 C 33.132812 -2.972656 34.992188 -1.453125 36.921875 -0.015625 L 36.265625 0.796875 C 35.441406 0.222656 34.789062 -0.0859375 34.3125 -0.140625 C 33.832031 -0.191406 33.363281 0.0664062 32.90625 0.640625 Z M 21.96875 13.96875 "/></g></g><g style="fill:#373434;fill-opacity:1;"><g transform="translate(81.785771, 254.634999)"><path style="stroke:none" d="M 11.546875 -4.046875 L 8.484375 1.390625 C 8.171875 1.953125 8.109375 2.441406 8.296875 2.859375 C 8.492188 3.285156 9.015625 3.773438 9.859375 4.328125 L 9.34375 5.25 C 6.570312 3.550781 3.726562 1.953125 0.8125 0.453125 L 1.328125 -0.46875 C 2.273438 -0.0195312 2.976562 0.175781 3.4375 0.125 C 3.894531 0.0820312 4.28125 -0.21875 4.59375 -0.78125 L 13.21875 -16.09375 C 13.488281 -16.582031 13.539062 -17.046875 13.375 -17.484375 C 13.21875 -17.921875 12.734375 -18.414062 11.921875 -18.96875 L 12.4375 -19.875 C 13.914062 -18.957031 15.390625 -18.101562 16.859375 -17.3125 C 18.335938 -16.519531 19.546875 -15.863281 20.484375 -15.34375 C 22.804688 -14.03125 24.457031 -12.769531 25.4375 -11.5625 C 26.425781 -10.351562 26.9375 -9.195312 26.96875 -8.09375 C 27 -7 26.742188 -5.972656 26.203125 -5.015625 C 25.554688 -3.867188 24.65625 -3.023438 23.5 -2.484375 C 22.34375 -1.953125 20.859375 -1.769531 19.046875 -1.9375 C 17.234375 -2.101562 15.023438 -2.6875 12.421875 -3.6875 Z M 12.171875 -5.15625 L 13.03125 -4.78125 C 14.695312 -4.101562 16.113281 -3.78125 17.28125 -3.8125 C 18.457031 -3.851562 19.453125 -4.15625 20.265625 -4.71875 C 21.078125 -5.28125 21.75 -6.035156 22.28125 -6.984375 C 23.019531 -8.296875 23.285156 -9.578125 23.078125 -10.828125 C 22.867188 -12.085938 22 -13.148438 20.46875 -14.015625 L 17.953125 -15.4375 Z M 12.171875 -5.15625 "/></g></g><g style="fill:#373434;fill-opacity:1;"><g transform="translate(108.502753, 269.030895)"><path style="stroke:none" d="M 31.578125 -12.390625 C 30.609375 -12.648438 29.890625 -12.722656 29.421875 -12.609375 C 28.953125 -12.503906 28.601562 -12.144531 28.375 -11.53125 L 22.3125 5.28125 C 22.144531 5.726562 22.207031 6.128906 22.5 6.484375 C 22.800781 6.847656 23.414062 7.238281 24.34375 7.65625 L 23.984375 8.65625 C 22.484375 8.0625 21.144531 7.550781 19.96875 7.125 C 18.800781 6.695312 17.679688 6.320312 16.609375 6 L 16.96875 5 C 17.226562 4.9375 17.460938 4.773438 17.671875 4.515625 C 17.878906 4.253906 18.082031 3.863281 18.28125 3.34375 L 18.640625 2.3125 C 18.046875 2.851562 17.320312 3.34375 16.46875 3.78125 C 15.613281 4.21875 14.65625 4.488281 13.59375 4.59375 C 12.539062 4.695312 11.363281 4.507812 10.0625 4.03125 C 7.882812 3.25 6.394531 1.976562 5.59375 0.21875 C 4.789062 -1.539062 4.769531 -3.472656 5.53125 -5.578125 L 10.0625 -18.140625 C 10.289062 -18.753906 10.257812 -19.25 9.96875 -19.625 C 9.6875 -20.007812 9.070312 -20.421875 8.125 -20.859375 L 8.484375 -21.84375 C 11.566406 -20.59375 14.675781 -19.46875 17.8125 -18.46875 L 17.453125 -17.484375 C 16.492188 -17.742188 15.773438 -17.816406 15.296875 -17.703125 C 14.828125 -17.597656 14.476562 -17.238281 14.25 -16.625 L 9.71875 -4.0625 C 9.09375 -2.332031 8.960938 -0.835938 9.328125 0.421875 C 9.691406 1.679688 10.546875 2.554688 11.890625 3.046875 C 12.859375 3.390625 13.796875 3.46875 14.703125 3.28125 C 15.617188 3.09375 16.46875 2.742188 17.25 2.234375 C 18.039062 1.734375 18.707031 1.195312 19.25 0.625 L 24.1875 -13.046875 C 24.414062 -13.660156 24.382812 -14.15625 24.09375 -14.53125 C 23.8125 -14.914062 23.195312 -15.320312 22.25 -15.75 L 22.609375 -16.734375 C 25.691406 -15.492188 28.800781 -14.375 31.9375 -13.375 Z M 31.578125 -12.390625 "/></g></g><g style="fill:#373434;fill-opacity:1;"><g transform="translate(141.707684, 279.948713)"><path style="stroke:none" d="M 13.703125 -2.21875 C 13.941406 -3.46875 13.679688 -4.570312 12.921875 -5.53125 C 12.160156 -6.488281 11.054688 -7.488281 9.609375 -8.53125 C 8.554688 -9.289062 7.601562 -10.101562 6.75 -10.96875 C 5.894531 -11.84375 5.25 -12.796875 4.8125 -13.828125 C 4.382812 -14.859375 4.289062 -16.003906 4.53125 -17.265625 C 4.882812 -19.097656 5.804688 -20.453125 7.296875 -21.328125 C 8.796875 -22.203125 10.632812 -22.429688 12.8125 -22.015625 C 13.675781 -21.859375 14.375 -21.65625 14.90625 -21.40625 C 15.4375 -21.15625 15.867188 -20.921875 16.203125 -20.703125 C 16.546875 -20.492188 16.863281 -20.359375 17.15625 -20.296875 C 17.363281 -20.253906 17.546875 -20.25 17.703125 -20.28125 C 17.867188 -20.3125 18.007812 -20.445312 18.125 -20.6875 L 19.34375 -20.453125 L 18.625 -15.296875 L 17.609375 -15.484375 C 17.160156 -17.210938 16.523438 -18.445312 15.703125 -19.1875 C 14.890625 -19.9375 14.019531 -20.398438 13.09375 -20.578125 C 11.875 -20.804688 10.867188 -20.660156 10.078125 -20.140625 C 9.285156 -19.628906 8.789062 -18.867188 8.59375 -17.859375 C 8.382812 -16.773438 8.597656 -15.796875 9.234375 -14.921875 C 9.878906 -14.046875 10.828125 -13.140625 12.078125 -12.203125 C 12.765625 -11.710938 13.5 -11.175781 14.28125 -10.59375 C 15.070312 -10.007812 15.800781 -9.34375 16.46875 -8.59375 C 17.144531 -7.851562 17.65625 -7.015625 18 -6.078125 C 18.34375 -5.148438 18.398438 -4.09375 18.171875 -2.90625 C 17.890625 -1.414062 17.265625 -0.253906 16.296875 0.578125 C 15.335938 1.421875 14.21875 1.96875 12.9375 2.21875 C 11.65625 2.46875 10.410156 2.476562 9.203125 2.25 C 8.242188 2.0625 7.445312 1.78125 6.8125 1.40625 C 6.175781 1.03125 5.640625 0.675781 5.203125 0.34375 C 4.773438 0.0078125 4.363281 -0.195312 3.96875 -0.28125 C 3.613281 -0.34375 3.3125 -0.289062 3.0625 -0.125 C 2.820312 0.0390625 2.640625 0.242188 2.515625 0.484375 L 1.265625 0.234375 L 1.953125 -5.234375 L 3.15625 -5 C 3.507812 -3.4375 4.195312 -2.15625 5.21875 -1.15625 C 6.25 -0.15625 7.441406 0.472656 8.796875 0.734375 C 10.109375 0.984375 11.195312 0.835938 12.0625 0.296875 C 12.9375 -0.242188 13.484375 -1.082031 13.703125 -2.21875 Z M 13.703125 -2.21875 "/></g></g><g style="fill:#373434;fill-opacity:1;"><g transform="translate(167.855648, 284.215055)"><path style="stroke:none" d=""/></g></g><g style="fill:#373434;fill-opacity:1;"><g transform="translate(184.537178, 285.470308)"><path style="stroke:none" d="M 20.015625 -7.1875 L 21.5625 -7.25 C 21.332031 -6.125 20.882812 -5.019531 20.21875 -3.9375 C 19.5625 -2.851562 18.628906 -1.941406 17.421875 -1.203125 C 16.210938 -0.472656 14.664062 -0.0703125 12.78125 0 C 10.519531 0.09375 8.507812 -0.351562 6.75 -1.34375 C 4.988281 -2.34375 3.582031 -3.757812 2.53125 -5.59375 C 1.488281 -7.425781 0.921875 -9.53125 0.828125 -11.90625 C 0.722656 -14.269531 1.109375 -16.382812 1.984375 -18.25 C 2.859375 -20.113281 4.109375 -21.601562 5.734375 -22.71875 C 7.359375 -23.832031 9.265625 -24.4375 11.453125 -24.53125 C 12.328125 -24.5625 13.050781 -24.519531 13.625 -24.40625 C 14.195312 -24.289062 14.75 -24.175781 15.28125 -24.0625 C 15.8125 -23.945312 16.441406 -23.90625 17.171875 -23.9375 C 17.421875 -23.945312 17.648438 -23.96875 17.859375 -24 C 18.078125 -24.03125 18.359375 -24.09375 18.703125 -24.1875 C 18.929688 -23.113281 19.175781 -22.050781 19.4375 -21 C 19.707031 -19.945312 20.101562 -18.863281 20.625 -17.75 L 18.59375 -17.671875 C 17.769531 -19.429688 16.769531 -20.800781 15.59375 -21.78125 C 14.414062 -22.769531 13.007812 -23.234375 11.375 -23.171875 C 10.175781 -23.117188 9.117188 -22.75 8.203125 -22.0625 C 7.285156 -21.382812 6.578125 -20.320312 6.078125 -18.875 C 5.585938 -17.4375 5.394531 -15.5625 5.5 -13.25 C 5.59375 -10.9375 5.972656 -8.890625 6.640625 -7.109375 C 7.304688 -5.328125 8.234375 -3.9375 9.421875 -2.9375 C 10.617188 -1.945312 12.046875 -1.484375 13.703125 -1.546875 C 15.054688 -1.609375 16.304688 -2.078125 17.453125 -2.953125 C 18.609375 -3.828125 19.460938 -5.238281 20.015625 -7.1875 Z M 20.015625 -7.1875 "/></g></g><g style="fill:#373434;fill-opacity:1;"><g transform="translate(216.154515, 283.541057)"><path style="stroke:none" d="M 20.265625 -27.203125 C 19.285156 -26.921875 18.628906 -26.609375 18.296875 -26.265625 C 17.960938 -25.929688 17.863281 -25.441406 18 -24.796875 L 21.734375 -7.3125 C 21.835938 -6.84375 22.109375 -6.53125 22.546875 -6.375 C 22.984375 -6.226562 23.707031 -6.222656 24.71875 -6.359375 L 24.9375 -5.328125 C 23.34375 -5.046875 21.9375 -4.773438 20.71875 -4.515625 C 19.507812 -4.253906 18.359375 -3.976562 17.265625 -3.6875 L 17.046875 -4.71875 C 17.234375 -4.914062 17.347656 -5.175781 17.390625 -5.5 C 17.429688 -5.832031 17.394531 -6.273438 17.28125 -6.828125 L 17.046875 -7.890625 C 16.835938 -7.128906 16.484375 -6.332031 15.984375 -5.5 C 15.492188 -4.675781 14.820312 -3.941406 13.96875 -3.296875 C 13.125 -2.660156 12.023438 -2.195312 10.671875 -1.90625 C 8.410156 -1.414062 6.472656 -1.703125 4.859375 -2.765625 C 3.253906 -3.835938 2.21875 -5.46875 1.75 -7.65625 L -1.046875 -20.71875 C -1.179688 -21.363281 -1.472656 -21.769531 -1.921875 -21.9375 C -2.367188 -22.113281 -3.101562 -22.132812 -4.125 -22 L -4.34375 -23.03125 C -1.070312 -23.59375 2.160156 -24.28125 5.359375 -25.09375 L 5.578125 -24.0625 C 4.609375 -23.78125 3.953125 -23.46875 3.609375 -23.125 C 3.273438 -22.789062 3.175781 -22.300781 3.3125 -21.65625 L 6.109375 -8.59375 C 6.484375 -6.800781 7.160156 -5.460938 8.140625 -4.578125 C 9.117188 -3.691406 10.304688 -3.394531 11.703125 -3.6875 C 12.710938 -3.90625 13.550781 -4.335938 14.21875 -4.984375 C 14.894531 -5.628906 15.429688 -6.375 15.828125 -7.21875 C 16.234375 -8.0625 16.515625 -8.875 16.671875 -9.65625 L 13.640625 -23.859375 C 13.503906 -24.503906 13.210938 -24.910156 12.765625 -25.078125 C 12.316406 -25.253906 11.582031 -25.269531 10.5625 -25.125 L 10.34375 -26.15625 C 13.613281 -26.726562 16.847656 -27.421875 20.046875 -28.234375 Z M 20.265625 -27.203125 "/></g></g><g style="fill:#373434;fill-opacity:1;"><g transform="translate(250.110687, 275.249665)"><path style="stroke:none" d="M 10.46875 -9.140625 C 10 -10.328125 9.191406 -11.117188 8.046875 -11.515625 C 6.898438 -11.921875 5.429688 -12.191406 3.640625 -12.328125 C 2.347656 -12.421875 1.109375 -12.609375 -0.078125 -12.890625 C -1.265625 -13.179688 -2.3125 -13.644531 -3.21875 -14.28125 C -4.132812 -14.925781 -4.820312 -15.847656 -5.28125 -17.046875 C -5.945312 -18.785156 -5.878906 -20.421875 -5.078125 -21.953125 C -4.273438 -23.492188 -2.835938 -24.664062 -0.765625 -25.46875 C 0.046875 -25.78125 0.742188 -25.972656 1.328125 -26.046875 C 1.910156 -26.117188 2.40625 -26.148438 2.8125 -26.140625 C 3.21875 -26.140625 3.5625 -26.195312 3.84375 -26.3125 C 4.039062 -26.382812 4.195312 -26.472656 4.3125 -26.578125 C 4.425781 -26.691406 4.472656 -26.878906 4.453125 -27.140625 L 5.609375 -27.578125 L 7.71875 -22.828125 L 6.734375 -22.453125 C 5.453125 -23.679688 4.265625 -24.394531 3.171875 -24.59375 C 2.085938 -24.800781 1.101562 -24.734375 0.21875 -24.390625 C -0.9375 -23.941406 -1.710938 -23.285156 -2.109375 -22.421875 C -2.503906 -21.566406 -2.515625 -20.660156 -2.140625 -19.703125 C -1.742188 -18.671875 -1.039062 -17.953125 -0.03125 -17.546875 C 0.96875 -17.140625 2.25 -16.875 3.8125 -16.75 C 4.644531 -16.695312 5.546875 -16.628906 6.515625 -16.546875 C 7.492188 -16.472656 8.460938 -16.296875 9.421875 -16.015625 C 10.390625 -15.734375 11.269531 -15.285156 12.0625 -14.671875 C 12.851562 -14.066406 13.46875 -13.203125 13.90625 -12.078125 C 14.445312 -10.671875 14.523438 -9.351562 14.140625 -8.125 C 13.765625 -6.90625 13.097656 -5.847656 12.140625 -4.953125 C 11.191406 -4.066406 10.144531 -3.398438 9 -2.953125 C 8.09375 -2.597656 7.269531 -2.410156 6.53125 -2.390625 C 5.800781 -2.378906 5.160156 -2.40625 4.609375 -2.46875 C 4.066406 -2.53125 3.609375 -2.488281 3.234375 -2.34375 C 2.898438 -2.207031 2.671875 -2 2.546875 -1.71875 C 2.421875 -1.445312 2.367188 -1.179688 2.390625 -0.921875 L 1.203125 -0.46875 L -1.109375 -5.46875 L 0.03125 -5.90625 C 1.164062 -4.78125 2.429688 -4.0625 3.828125 -3.75 C 5.222656 -3.445312 6.5625 -3.539062 7.84375 -4.03125 C 9.09375 -4.507812 9.945312 -5.207031 10.40625 -6.125 C 10.863281 -7.050781 10.882812 -8.054688 10.46875 -9.140625 Z M 10.46875 -9.140625 "/></g></g><g style="fill:#373434;fill-opacity:1;"><g transform="translate(275.072247, 265.044837)"><path style="stroke:none" d="M 5.09375 -30.046875 L 5.953125 -30.515625 L 7.265625 -25.390625 L 6.328125 -24.875 C 5.804688 -26.164062 5.273438 -26.929688 4.734375 -27.171875 C 4.191406 -27.421875 3.601562 -27.363281 2.96875 -27 L 0.140625 -25.421875 L 9.515625 -8.703125 C 9.828125 -8.140625 10.238281 -7.847656 10.75 -7.828125 C 11.269531 -7.804688 12.078125 -8.0625 13.171875 -8.59375 L 13.6875 -7.671875 C 10.5 -6.003906 7.382812 -4.257812 4.34375 -2.4375 L 3.828125 -3.359375 C 4.835938 -4.015625 5.46875 -4.566406 5.71875 -5.015625 C 5.976562 -5.460938 5.953125 -5.96875 5.640625 -6.53125 L -3.734375 -23.25 L -5.96875 -22 C -6.519531 -21.6875 -6.925781 -21.351562 -7.1875 -21 C -7.457031 -20.65625 -7.617188 -20.175781 -7.671875 -19.5625 C -7.734375 -18.945312 -7.734375 -18.097656 -7.671875 -17.015625 L -8.609375 -16.5 L -9.9375 -21.609375 L -9.09375 -22.09375 C -8.582031 -22.238281 -8.078125 -22.425781 -7.578125 -22.65625 C -7.085938 -22.882812 -6.425781 -23.234375 -5.59375 -23.703125 L 1.875 -27.890625 C 2.695312 -28.359375 3.332031 -28.742188 3.78125 -29.046875 C 4.238281 -29.347656 4.675781 -29.679688 5.09375 -30.046875 Z M 5.09375 -30.046875 "/></g></g><g style="fill:#373434;fill-opacity:1;"><g transform="translate(300.623323, 250.069659)"><path style="stroke:none" d="M -5.421875 -26.375 C -3.753906 -27.695312 -1.953125 -28.453125 -0.015625 -28.640625 C 1.921875 -28.828125 3.835938 -28.484375 5.734375 -27.609375 C 7.628906 -26.742188 9.328125 -25.363281 10.828125 -23.46875 C 12.265625 -21.65625 13.195312 -19.734375 13.625 -17.703125 C 14.050781 -15.679688 13.953125 -13.75 13.328125 -11.90625 C 12.710938 -10.070312 11.582031 -8.503906 9.9375 -7.203125 C 8.28125 -5.890625 6.476562 -5.132812 4.53125 -4.9375 C 2.582031 -4.738281 0.660156 -5.070312 -1.234375 -5.9375 C -3.128906 -6.8125 -4.828125 -8.195312 -6.328125 -10.09375 C -7.773438 -11.914062 -8.710938 -13.832031 -9.140625 -15.84375 C -9.566406 -17.863281 -9.46875 -19.796875 -8.84375 -21.640625 C -8.21875 -23.484375 -7.078125 -25.0625 -5.421875 -26.375 Z M 9.484375 -8.546875 C 10.265625 -9.171875 10.785156 -10.007812 11.046875 -11.0625 C 11.316406 -12.113281 11.203125 -13.363281 10.703125 -14.8125 C 10.210938 -16.269531 9.238281 -17.914062 7.78125 -19.75 C 6.34375 -21.5625 4.832031 -22.992188 3.25 -24.046875 C 1.675781 -25.109375 0.164062 -25.734375 -1.28125 -25.921875 C -2.738281 -26.117188 -4 -25.796875 -5.0625 -24.953125 C -5.8125 -24.359375 -6.3125 -23.539062 -6.5625 -22.5 C -6.820312 -21.46875 -6.707031 -20.234375 -6.21875 -18.796875 C -5.738281 -17.359375 -4.765625 -15.710938 -3.296875 -13.859375 C -1.878906 -12.066406 -0.375 -10.628906 1.21875 -9.546875 C 2.820312 -8.460938 4.34375 -7.820312 5.78125 -7.625 C 7.226562 -7.425781 8.460938 -7.734375 9.484375 -8.546875 Z M 9.484375 -8.546875 "/></g></g><g style="fill:#373434;fill-opacity:1;"><g transform="translate(326.355761, 228.657608)"><path style="stroke:none" d="M -10.6875 -23.171875 C -9.03125 -25.023438 -7.273438 -26.390625 -5.421875 -27.265625 C -3.566406 -28.148438 -1.648438 -28.414062 0.328125 -28.0625 C 2.304688 -27.707031 4.3125 -26.625 6.34375 -24.8125 C 8.019531 -23.300781 9.191406 -21.773438 9.859375 -20.234375 C 10.523438 -18.691406 10.828125 -17.210938 10.765625 -15.796875 C 10.710938 -14.378906 10.421875 -13.085938 9.890625 -11.921875 C 9.367188 -10.753906 8.765625 -9.785156 8.078125 -9.015625 C 7.429688 -8.285156 6.703125 -7.617188 5.890625 -7.015625 C 5.078125 -6.421875 4.320312 -5.734375 3.625 -4.953125 C 2.96875 -4.222656 2.425781 -3.535156 2 -2.890625 C 1.570312 -2.242188 1.113281 -1.515625 0.625 -0.703125 L -0.171875 -1.40625 C 0.316406 -2.25 0.609375 -2.910156 0.703125 -3.390625 C 0.796875 -3.867188 0.617188 -4.3125 0.171875 -4.71875 L -12.6875 -16.25 C -13.15625 -16.664062 -13.632812 -16.851562 -14.125 -16.8125 C -14.613281 -16.769531 -15.210938 -16.414062 -15.921875 -15.75 L -16.703125 -16.453125 C -15.492188 -17.691406 -14.445312 -18.828125 -13.5625 -19.859375 C -12.6875 -20.898438 -11.726562 -22.003906 -10.6875 -23.171875 Z M 6.3125 -8.921875 C 7.507812 -10.253906 8.109375 -11.59375 8.109375 -12.9375 C 8.117188 -14.289062 7.6875 -15.640625 6.8125 -16.984375 C 5.9375 -18.335938 4.78125 -19.660156 3.34375 -20.953125 C 1.75 -22.378906 0.175781 -23.425781 -1.375 -24.09375 C -2.9375 -24.769531 -4.4375 -24.984375 -5.875 -24.734375 C -7.3125 -24.484375 -8.648438 -23.671875 -9.890625 -22.296875 C -10.003906 -22.160156 -10.175781 -21.960938 -10.40625 -21.703125 C -10.632812 -21.453125 -10.875 -21.15625 -11.125 -20.8125 L 2.96875 -8.1875 C 3.40625 -7.789062 3.828125 -7.601562 4.234375 -7.625 C 4.640625 -7.65625 5.015625 -7.796875 5.359375 -8.046875 C 5.710938 -8.304688 6.03125 -8.597656 6.3125 -8.921875 Z M 6.3125 -8.921875 "/></g></g><g style="fill:#373434;fill-opacity:1;"><g transform="translate(347.493047, 203.587863)"><path style="stroke:none" d="M 2.125 -8.390625 C 2.664062 -8.023438 3.160156 -7.9375 3.609375 -8.125 C 4.054688 -8.3125 4.59375 -8.796875 5.21875 -9.578125 L 6.09375 -8.984375 C 4.144531 -6.335938 2.289062 -3.601562 0.53125 -0.78125 L -0.34375 -1.375 C 0.164062 -2.269531 0.425781 -2.957031 0.4375 -3.4375 C 0.445312 -3.925781 0.179688 -4.351562 -0.359375 -4.71875 L -14.875 -14.5625 C -15.414062 -14.925781 -15.910156 -15.015625 -16.359375 -14.828125 C -16.804688 -14.640625 -17.347656 -14.144531 -17.984375 -13.34375 L -18.859375 -13.921875 C -16.890625 -16.609375 -15.035156 -19.34375 -13.296875 -22.125 L -12.421875 -21.546875 C -12.921875 -20.671875 -13.175781 -19.988281 -13.1875 -19.5 C -13.195312 -19.019531 -12.929688 -18.597656 -12.390625 -18.234375 Z M 2.125 -8.390625 "/></g></g><g style="fill:#373434;fill-opacity:1;"><g transform="translate(358.569695, 186.70357)"><path style="stroke:none" d="M 1.765625 -13.78125 C 0.628906 -14.363281 -0.5 -14.425781 -1.625 -13.96875 C -2.75 -13.507812 -4.019531 -12.734375 -5.4375 -11.640625 C -6.46875 -10.859375 -7.519531 -10.175781 -8.59375 -9.59375 C -9.675781 -9.019531 -10.773438 -8.671875 -11.890625 -8.546875 C -13.003906 -8.421875 -14.128906 -8.648438 -15.265625 -9.234375 C -16.921875 -10.085938 -17.953125 -11.359375 -18.359375 -13.046875 C -18.773438 -14.734375 -18.476562 -16.566406 -17.46875 -18.546875 C -17.0625 -19.316406 -16.664062 -19.921875 -16.28125 -20.359375 C -15.894531 -20.804688 -15.546875 -21.160156 -15.234375 -21.421875 C -14.929688 -21.691406 -14.710938 -21.960938 -14.578125 -22.234375 C -14.472656 -22.421875 -14.414062 -22.59375 -14.40625 -22.75 C -14.394531 -22.90625 -14.484375 -23.070312 -14.671875 -23.25 L -14.109375 -24.359375 L -9.375 -22.203125 L -9.859375 -21.265625 C -11.628906 -21.328125 -12.988281 -21.070312 -13.9375 -20.5 C -14.882812 -19.9375 -15.578125 -19.234375 -16.015625 -18.390625 C -16.585938 -17.285156 -16.734375 -16.28125 -16.453125 -15.375 C -16.179688 -14.476562 -15.585938 -13.796875 -14.671875 -13.328125 C -13.691406 -12.816406 -12.691406 -12.742188 -11.671875 -13.109375 C -10.660156 -13.472656 -9.523438 -14.125 -8.265625 -15.0625 C -7.609375 -15.570312 -6.882812 -16.117188 -6.09375 -16.703125 C -5.3125 -17.296875 -4.46875 -17.804688 -3.5625 -18.234375 C -2.664062 -18.671875 -1.71875 -18.921875 -0.71875 -18.984375 C 0.28125 -19.046875 1.316406 -18.800781 2.390625 -18.25 C 3.734375 -17.5625 4.664062 -16.632812 5.1875 -15.46875 C 5.71875 -14.300781 5.921875 -13.066406 5.796875 -11.765625 C 5.679688 -10.472656 5.34375 -9.28125 4.78125 -8.1875 C 4.332031 -7.320312 3.835938 -6.640625 3.296875 -6.140625 C 2.753906 -5.640625 2.257812 -5.226562 1.8125 -4.90625 C 1.363281 -4.582031 1.046875 -4.242188 0.859375 -3.890625 C 0.691406 -3.566406 0.65625 -3.257812 0.75 -2.96875 C 0.851562 -2.6875 0.992188 -2.457031 1.171875 -2.28125 L 0.59375 -1.140625 L -4.453125 -3.359375 L -3.90625 -4.453125 C -2.300781 -4.347656 -0.875 -4.644531 0.375 -5.34375 C 1.625 -6.050781 2.566406 -7.015625 3.203125 -8.234375 C 3.816406 -9.421875 3.988281 -10.507812 3.71875 -11.5 C 3.445312 -12.488281 2.796875 -13.25 1.765625 -13.78125 Z M 1.765625 -13.78125 "/></g></g><g style="fill:#373434;fill-opacity:1;"><g transform="translate(370.092001, 162.843951)"><path style="stroke:none" d="M -6.796875 -6.703125 C -7.023438 -6.109375 -7.4375 -5.6875 -8.03125 -5.4375 C -8.625 -5.1875 -9.21875 -5.175781 -9.8125 -5.40625 C -10.394531 -5.632812 -10.816406 -6.035156 -11.078125 -6.609375 C -11.335938 -7.191406 -11.351562 -7.78125 -11.125 -8.375 C -10.90625 -8.957031 -10.5 -9.378906 -9.90625 -9.640625 C -9.320312 -9.898438 -8.738281 -9.914062 -8.15625 -9.6875 C -7.5625 -9.457031 -7.128906 -9.046875 -6.859375 -8.453125 C -6.597656 -7.867188 -6.578125 -7.285156 -6.796875 -6.703125 Z M -6.796875 -6.703125 "/></g></g><g style="fill:#b47812;fill-opacity:1;"><g transform="translate(57.050657, 295.686496)"><path style="stroke:none" d="M 9.28125 -17.9375 L 15.03125 -15.71875 L 14.4375 -14.15625 L 10.3125 -15.75 L 9.0625 -12.515625 L 11.609375 -11.53125 L 11.046875 -10.09375 L 8.5 -11.078125 L 4.296875 -0.15625 L 8.421875 1.4375 L 7.8125 3.015625 L 2.0625 0.796875 Z M 9.28125 -17.9375 "/></g></g><g style="fill:#b47812;fill-opacity:1;"><g transform="translate(68.699662, 300.149522)"><path style="stroke:none" d="M 17.625 -15.234375 L 7.21875 2.453125 L 5.375 1.8125 L 7.828125 -18.546875 L 9.453125 -18 L 7.4375 -1.25 L 16 -15.78125 Z M 17.625 -15.234375 "/></g></g><g style="fill:#b47812;fill-opacity:1;"><g transform="translate(84.403732, 305.351857)"><path style="stroke:none" d="M 7.765625 -18.640625 L 13.6875 -16.90625 L 13.203125 -15.296875 L 8.96875 -16.546875 L 8 -13.21875 L 10.625 -12.453125 L 10.1875 -10.96875 L 7.5625 -11.734375 L 4.265625 -0.515625 L 8.5 0.734375 L 8.03125 2.359375 L 2.109375 0.625 Z M 7.765625 -18.640625 "/></g></g><g style="fill:#b47812;fill-opacity:1;"><g transform="translate(96.36992, 308.825826)"><path style="stroke:none" d="M 7.875 -7.875 L 5.625 -6.21875 L 3.828125 0.953125 L 2.140625 0.53125 L 7.015625 -18.953125 L 11.5 -17.828125 C 12.738281 -17.515625 13.585938 -17.019531 14.046875 -16.34375 C 14.515625 -15.664062 14.628906 -14.859375 14.390625 -13.921875 C 14.273438 -13.441406 14.09375 -13.019531 13.84375 -12.65625 C 13.601562 -12.300781 13.265625 -11.941406 12.828125 -11.578125 C 12.398438 -11.222656 11.820312 -10.78125 11.09375 -10.25 L 9.484375 -9.03125 L 11.328125 2.265625 L 9.59375 2.671875 Z M 6.203125 -8.5 L 10.375 -11.59375 C 10.914062 -11.976562 11.328125 -12.3125 11.609375 -12.59375 C 11.898438 -12.875 12.117188 -13.144531 12.265625 -13.40625 C 12.421875 -13.664062 12.539062 -13.960938 12.625 -14.296875 C 12.863281 -15.253906 12.363281 -15.882812 11.125 -16.1875 L 8.296875 -16.90625 Z M 6.203125 -8.5 "/></g></g><g style="fill:#b47812;fill-opacity:1;"><g transform="translate(111.511713, 312.535995)"><path style="stroke:none" d="M 14.703125 -17.484375 L 8.921875 -10.265625 L 6.546875 1.34375 L 4.84375 0.984375 L 7.21875 -10.625 L 4.734375 -19.53125 L 6.53125 -19.15625 L 8.421875 -12.109375 L 12.9375 -17.84375 Z M 14.703125 -17.484375 "/></g></g><g style="fill:#b47812;fill-opacity:1;"><g transform="translate(125.989602, 315.391286)"><path style="stroke:none" d=""/></g></g><g style="fill:#b47812;fill-opacity:1;"><g transform="translate(133.306682, 316.645265)"><path style="stroke:none" d="M 7.578125 -10.578125 C 8.117188 -9.847656 8.59375 -9.140625 9 -8.453125 C 9.40625 -7.773438 9.703125 -7.0625 9.890625 -6.3125 C 10.078125 -5.5625 10.101562 -4.722656 9.96875 -3.796875 C 9.75 -2.179688 9.148438 -0.9375 8.171875 -0.0625 C 7.203125 0.8125 6.039062 1.148438 4.6875 0.953125 C 3.707031 0.816406 2.925781 0.5 2.34375 0 C 1.757812 -0.507812 1.234375 -1.257812 0.765625 -2.25 L 2.421875 -2.875 C 2.804688 -2.132812 3.1875 -1.617188 3.5625 -1.328125 C 3.945312 -1.046875 4.4375 -0.863281 5.03125 -0.78125 C 5.632812 -0.695312 6.128906 -0.75 6.515625 -0.9375 C 6.910156 -1.125 7.21875 -1.390625 7.4375 -1.734375 C 7.664062 -2.078125 7.835938 -2.4375 7.953125 -2.8125 C 8.066406 -3.195312 8.144531 -3.539062 8.1875 -3.84375 C 8.28125 -4.53125 8.273438 -5.144531 8.171875 -5.6875 C 8.078125 -6.226562 7.867188 -6.78125 7.546875 -7.34375 C 7.222656 -7.914062 6.785156 -8.550781 6.234375 -9.25 C 5.421875 -10.3125 4.765625 -11.363281 4.265625 -12.40625 C 3.765625 -13.457031 3.601562 -14.660156 3.78125 -16.015625 C 3.945312 -17.273438 4.414062 -18.210938 5.1875 -18.828125 C 5.957031 -19.453125 6.804688 -19.703125 7.734375 -19.578125 C 8.546875 -19.460938 9.1875 -19.15625 9.65625 -18.65625 C 10.125 -18.164062 10.5 -17.441406 10.78125 -16.484375 L 9.03125 -16.03125 C 8.820312 -16.65625 8.609375 -17.09375 8.390625 -17.34375 C 8.171875 -17.59375 7.867188 -17.75 7.484375 -17.8125 C 6.941406 -17.882812 6.5 -17.738281 6.15625 -17.375 C 5.820312 -17.019531 5.617188 -16.492188 5.546875 -15.796875 C 5.421875 -14.785156 5.566406 -13.875 5.984375 -13.0625 C 6.398438 -12.257812 6.929688 -11.429688 7.578125 -10.578125 Z M 7.578125 -10.578125 "/></g></g><g style="fill:#b47812;fill-opacity:1;"><g transform="translate(146.268914, 318.424157)"><path style="stroke:none" d="M 4.296875 -19.734375 L 10.4375 -19.09375 L 10.25 -17.4375 L 5.859375 -17.890625 L 5.5 -14.4375 L 8.21875 -14.15625 L 8.0625 -12.609375 L 5.34375 -12.890625 L 4.109375 -1.25 L 8.5 -0.796875 L 8.328125 0.875 L 2.1875 0.234375 Z M 4.296875 -19.734375 "/></g></g><g style="fill:#b47812;fill-opacity:1;"><g transform="translate(158.641923, 319.68154)"><path style="stroke:none" d="M 10.421875 -1.71875 C 9.953125 -0.882812 9.359375 -0.257812 8.640625 0.15625 C 7.921875 0.582031 7.113281 0.765625 6.21875 0.703125 C 4.457031 0.585938 3.191406 -0.335938 2.421875 -2.078125 C 1.660156 -3.828125 1.398438 -6.484375 1.640625 -10.046875 C 2.097656 -16.921875 4.179688 -20.234375 7.890625 -19.984375 C 8.523438 -19.941406 9.1875 -19.664062 9.875 -19.15625 C 10.570312 -18.644531 11.101562 -17.929688 11.46875 -17.015625 L 10.09375 -16.1875 C 9.664062 -17.070312 9.222656 -17.644531 8.765625 -17.90625 C 8.304688 -18.175781 7.882812 -18.320312 7.5 -18.34375 C 6.738281 -18.394531 6.109375 -18.175781 5.609375 -17.6875 C 5.117188 -17.207031 4.726562 -16.566406 4.4375 -15.765625 C 4.15625 -14.960938 3.9375 -14.082031 3.78125 -13.125 C 3.625 -12.164062 3.515625 -11.234375 3.453125 -10.328125 C 3.390625 -9.328125 3.363281 -8.289062 3.375 -7.21875 C 3.394531 -6.144531 3.492188 -5.144531 3.671875 -4.21875 C 3.847656 -3.300781 4.15625 -2.546875 4.59375 -1.953125 C 5.039062 -1.359375 5.664062 -1.03125 6.46875 -0.96875 C 7.125 -0.925781 7.632812 -1.0625 8 -1.375 C 8.375 -1.6875 8.726562 -2.101562 9.0625 -2.625 Z M 10.421875 -1.71875 "/></g></g><g style="fill:#b47812;fill-opacity:1;"><g transform="translate(172.588871, 320.574022)"><path style="stroke:none" d="M 6.28125 0.4375 C 4.539062 0.394531 3.242188 -0.46875 2.390625 -2.15625 C 1.546875 -3.851562 1.164062 -6.488281 1.25 -10.0625 C 1.34375 -13.65625 1.851562 -16.269531 2.78125 -17.90625 C 3.71875 -19.550781 5.054688 -20.351562 6.796875 -20.3125 C 8.554688 -20.269531 9.851562 -19.40625 10.6875 -17.71875 C 11.53125 -16.03125 11.90625 -13.390625 11.8125 -9.796875 C 11.726562 -6.222656 11.222656 -3.613281 10.296875 -1.96875 C 9.378906 -0.320312 8.039062 0.476562 6.28125 0.4375 Z M 6.3125 -1.21875 C 7.070312 -1.195312 7.6875 -1.460938 8.15625 -2.015625 C 8.632812 -2.566406 9.003906 -3.285156 9.265625 -4.171875 C 9.523438 -5.054688 9.710938 -6.003906 9.828125 -7.015625 C 9.941406 -8.023438 10.007812 -8.96875 10.03125 -9.84375 C 10.050781 -10.738281 10.03125 -11.691406 9.96875 -12.703125 C 9.90625 -13.710938 9.765625 -14.660156 9.546875 -15.546875 C 9.328125 -16.441406 8.992188 -17.175781 8.546875 -17.75 C 8.109375 -18.332031 7.507812 -18.632812 6.75 -18.65625 C 5.976562 -18.675781 5.351562 -18.40625 4.875 -17.84375 C 4.40625 -17.289062 4.039062 -16.570312 3.78125 -15.6875 C 3.53125 -14.8125 3.347656 -13.875 3.234375 -12.875 C 3.117188 -11.875 3.050781 -10.925781 3.03125 -10.03125 C 3.007812 -9.15625 3.03125 -8.207031 3.09375 -7.1875 C 3.15625 -6.164062 3.289062 -5.207031 3.5 -4.3125 C 3.71875 -3.414062 4.046875 -2.679688 4.484375 -2.109375 C 4.929688 -1.535156 5.539062 -1.238281 6.3125 -1.21875 Z M 6.3125 -1.21875 "/></g></g><g style="fill:#b47812;fill-opacity:1;"><g transform="translate(188.431375, 320.903036)"><path style="stroke:none" d="M 10.5625 -20.3125 L 10.984375 -0.234375 L 9.234375 -0.1875 L 9 -11.28125 L 3.59375 -17.484375 L 3.953125 -0.078125 L 2.203125 -0.046875 L 1.78125 -20.125 L 3.53125 -20.15625 L 8.953125 -13.953125 L 8.8125 -20.265625 Z M 10.5625 -20.3125 "/></g></g><g style="fill:#b47812;fill-opacity:1;"><g transform="translate(204.92085, 320.468371)"><path style="stroke:none" d="M 2.734375 -20.296875 C 4.160156 -20.390625 5.421875 -20.078125 6.515625 -19.359375 C 7.609375 -18.648438 8.484375 -17.585938 9.140625 -16.171875 C 9.796875 -14.765625 10.1875 -13.054688 10.3125 -11.046875 C 10.394531 -9.773438 10.359375 -8.519531 10.203125 -7.28125 C 10.046875 -6.050781 9.71875 -4.921875 9.21875 -3.890625 C 8.726562 -2.859375 8.0625 -2.015625 7.21875 -1.359375 C 6.375 -0.710938 5.320312 -0.347656 4.0625 -0.265625 L 2.15625 -0.140625 L 0.828125 -20.171875 Z M 8.53125 -10.921875 C 8.351562 -13.660156 7.738281 -15.648438 6.6875 -16.890625 C 5.644531 -18.128906 4.421875 -18.710938 3.015625 -18.640625 L 2.671875 -18.625 L 3.78125 -1.953125 L 3.890625 -1.953125 C 5.648438 -2.085938 6.910156 -2.894531 7.671875 -4.375 C 8.441406 -5.851562 8.726562 -8.035156 8.53125 -10.921875 Z M 8.53125 -10.921875 "/></g></g><g style="fill:#b47812;fill-opacity:1;"><g transform="translate(219.927726, 319.363648)"><path style="stroke:none" d=""/></g></g><g style="fill:#b47812;fill-opacity:1;"><g transform="translate(227.327953, 318.636585)"><path style="stroke:none" d="M 9.90625 -3.703125 C 9.59375 -2.796875 9.125 -2.066406 8.5 -1.515625 C 7.875 -0.960938 7.117188 -0.628906 6.234375 -0.515625 C 4.484375 -0.296875 3.0625 -0.960938 1.96875 -2.515625 C 0.875 -4.078125 0.0976562 -6.628906 -0.359375 -10.171875 C -1.242188 -17.003906 0.160156 -20.660156 3.859375 -21.140625 C 4.484375 -21.210938 5.1875 -21.066406 5.96875 -20.703125 C 6.75 -20.347656 7.410156 -19.753906 7.953125 -18.921875 L 6.734375 -17.828125 C 6.148438 -18.628906 5.609375 -19.113281 5.109375 -19.28125 C 4.609375 -19.445312 4.171875 -19.503906 3.796875 -19.453125 C 3.035156 -19.359375 2.460938 -19.023438 2.078125 -18.453125 C 1.691406 -17.890625 1.429688 -17.179688 1.296875 -16.328125 C 1.160156 -15.484375 1.109375 -14.578125 1.140625 -13.609375 C 1.179688 -12.648438 1.265625 -11.71875 1.390625 -10.8125 C 1.515625 -9.8125 1.6875 -8.785156 1.90625 -7.734375 C 2.125 -6.691406 2.414062 -5.734375 2.78125 -4.859375 C 3.144531 -3.984375 3.597656 -3.296875 4.140625 -2.796875 C 4.679688 -2.304688 5.351562 -2.109375 6.15625 -2.203125 C 6.800781 -2.285156 7.273438 -2.515625 7.578125 -2.890625 C 7.890625 -3.273438 8.15625 -3.753906 8.375 -4.328125 Z M 9.90625 -3.703125 "/></g></g><g style="fill:#b47812;fill-opacity:1;"><g transform="translate(241.181999, 316.798454)"><path style="stroke:none" d="M 6.234375 -0.78125 C 4.523438 -0.488281 3.085938 -1.09375 1.921875 -2.59375 C 0.765625 -4.09375 -0.117188 -6.601562 -0.734375 -10.125 C -1.335938 -13.664062 -1.34375 -16.328125 -0.75 -18.109375 C -0.15625 -19.898438 0.992188 -20.941406 2.703125 -21.234375 C 4.441406 -21.535156 5.882812 -20.941406 7.03125 -19.453125 C 8.1875 -17.972656 9.066406 -15.460938 9.671875 -11.921875 C 10.285156 -8.398438 10.300781 -5.738281 9.71875 -3.9375 C 9.132812 -2.132812 7.972656 -1.082031 6.234375 -0.78125 Z M 5.953125 -2.421875 C 6.703125 -2.554688 7.253906 -2.9375 7.609375 -3.5625 C 7.972656 -4.195312 8.195312 -4.972656 8.28125 -5.890625 C 8.363281 -6.816406 8.359375 -7.785156 8.265625 -8.796875 C 8.179688 -9.804688 8.066406 -10.742188 7.921875 -11.609375 C 7.773438 -12.484375 7.570312 -13.410156 7.3125 -14.390625 C 7.050781 -15.378906 6.726562 -16.285156 6.34375 -17.109375 C 5.957031 -17.941406 5.488281 -18.597656 4.9375 -19.078125 C 4.382812 -19.554688 3.734375 -19.726562 2.984375 -19.59375 C 2.222656 -19.46875 1.664062 -19.085938 1.3125 -18.453125 C 0.96875 -17.816406 0.753906 -17.039062 0.671875 -16.125 C 0.585938 -15.21875 0.585938 -14.257812 0.671875 -13.25 C 0.753906 -12.238281 0.867188 -11.296875 1.015625 -10.421875 C 1.160156 -9.554688 1.363281 -8.628906 1.625 -7.640625 C 1.894531 -6.660156 2.222656 -5.75 2.609375 -4.90625 C 2.992188 -4.070312 3.457031 -3.414062 4 -2.9375 C 4.539062 -2.46875 5.191406 -2.296875 5.953125 -2.421875 Z M 5.953125 -2.421875 "/></g></g><g style="fill:#b47812;fill-opacity:1;"><g transform="translate(256.79395, 314.041221)"><path style="stroke:none" d="M 10.390625 -7.234375 C 10.710938 -5.734375 10.585938 -4.441406 10.015625 -3.359375 C 9.441406 -2.285156 8.363281 -1.570312 6.78125 -1.21875 C 5.25 -0.882812 3.976562 -1.046875 2.96875 -1.703125 C 1.957031 -2.359375 1.285156 -3.445312 0.953125 -4.96875 L -2.375 -20.046875 L -0.671875 -20.421875 L 2.609375 -5.546875 C 2.890625 -4.296875 3.378906 -3.476562 4.078125 -3.09375 C 4.785156 -2.707031 5.617188 -2.617188 6.578125 -2.828125 C 7.398438 -3.015625 8.023438 -3.425781 8.453125 -4.0625 C 8.878906 -4.695312 8.953125 -5.640625 8.671875 -6.890625 L 5.390625 -21.765625 L 7.09375 -22.140625 Z M 10.390625 -7.234375 "/></g></g><g style="fill:#b47812;fill-opacity:1;"><g transform="translate(273.411547, 310.280083)"><path style="stroke:none" d="M 5.328125 -22.25 L 10.59375 -2.875 L 8.90625 -2.421875 L 6 -13.125 L -0.75 -17.828125 L 3.8125 -1.03125 L 2.125 -0.578125 L -3.140625 -19.953125 L -1.453125 -20.40625 L 5.296875 -15.703125 L 3.640625 -21.796875 Z M 5.328125 -22.25 "/></g></g><g style="fill:#b47812;fill-opacity:1;"><g transform="translate(289.275434, 305.862263)"><path style="stroke:none" d="M 0.015625 -19.328125 L 5.59375 -1.78125 L 3.9375 -1.25 L -1.640625 -18.796875 L -5.0625 -17.71875 L -5.5625 -19.3125 L 2.953125 -22.015625 L 3.453125 -20.421875 Z M 0.015625 -19.328125 "/></g></g><g style="fill:#b47812;fill-opacity:1;"><g transform="translate(301.84605, 301.803365)"><path style="stroke:none" d="M 1.75 -12.875 C 2.570312 -12.5 3.316406 -12.101562 3.984375 -11.6875 C 4.660156 -11.269531 5.257812 -10.769531 5.78125 -10.1875 C 6.3125 -9.613281 6.734375 -8.890625 7.046875 -8.015625 C 7.597656 -6.484375 7.644531 -5.101562 7.1875 -3.875 C 6.738281 -2.65625 5.875 -1.816406 4.59375 -1.359375 C 3.664062 -1.015625 2.820312 -0.925781 2.0625 -1.09375 C 1.3125 -1.269531 0.5 -1.679688 -0.375 -2.328125 L 0.796875 -3.671875 C 1.484375 -3.203125 2.0625 -2.925781 2.53125 -2.84375 C 3.007812 -2.769531 3.53125 -2.835938 4.09375 -3.046875 C 4.664062 -3.253906 5.078125 -3.53125 5.328125 -3.875 C 5.578125 -4.226562 5.722656 -4.609375 5.765625 -5.015625 C 5.804688 -5.421875 5.785156 -5.816406 5.703125 -6.203125 C 5.628906 -6.597656 5.539062 -6.9375 5.4375 -7.21875 C 5.195312 -7.875 4.90625 -8.414062 4.5625 -8.84375 C 4.21875 -9.269531 3.769531 -9.664062 3.21875 -10.03125 C 2.675781 -10.394531 2.003906 -10.75 1.203125 -11.09375 C -0.0234375 -11.644531 -1.101562 -12.269531 -2.03125 -12.96875 C -2.96875 -13.664062 -3.675781 -14.644531 -4.15625 -15.90625 C -4.59375 -17.113281 -4.613281 -18.171875 -4.21875 -19.078125 C -3.820312 -19.992188 -3.1875 -20.609375 -2.3125 -20.921875 C -1.53125 -21.203125 -0.816406 -21.234375 -0.171875 -21.015625 C 0.460938 -20.796875 1.128906 -20.328125 1.828125 -19.609375 L 0.5 -18.390625 C 0.0195312 -18.847656 -0.375 -19.132812 -0.6875 -19.25 C -1 -19.375 -1.34375 -19.367188 -1.71875 -19.234375 C -2.21875 -19.054688 -2.53125 -18.726562 -2.65625 -18.25 C -2.789062 -17.769531 -2.726562 -17.203125 -2.46875 -16.546875 C -2.113281 -15.609375 -1.5625 -14.878906 -0.8125 -14.359375 C -0.0625 -13.835938 0.789062 -13.34375 1.75 -12.875 Z M 1.75 -12.875 "/></g></g><g style="fill:#b47812;fill-opacity:1;"><g transform="translate(314.066188, 297.320818)"><path style="stroke:none" d="M -4.296875 -19.875 L -3.65625 -18.25 C -3.34375 -17.4375 -2.972656 -16.46875 -2.546875 -15.34375 C -2.117188 -14.21875 -1.6875 -13.050781 -1.25 -11.84375 C -0.8125 -10.632812 -0.394531 -9.484375 0 -8.390625 C 0.40625 -7.304688 0.75 -6.390625 1.03125 -5.640625 L -0.3125 -5.109375 C -0.625 -5.847656 -1.003906 -6.75 -1.453125 -7.8125 C -1.910156 -8.882812 -2.378906 -10.015625 -2.859375 -11.203125 C -3.347656 -12.398438 -3.820312 -13.550781 -4.28125 -14.65625 C -4.75 -15.769531 -5.140625 -16.734375 -5.453125 -17.546875 L -6.09375 -19.171875 Z M 1.328125 -2.921875 C 1.660156 -3.054688 1.984375 -3.046875 2.296875 -2.890625 C 2.609375 -2.742188 2.828125 -2.515625 2.953125 -2.203125 C 3.078125 -1.878906 3.070312 -1.5625 2.9375 -1.25 C 2.8125 -0.9375 2.582031 -0.710938 2.25 -0.578125 C 1.925781 -0.453125 1.597656 -0.457031 1.265625 -0.59375 C 0.941406 -0.726562 0.71875 -0.957031 0.59375 -1.28125 C 0.46875 -1.59375 0.476562 -1.910156 0.625 -2.234375 C 0.769531 -2.566406 1.003906 -2.796875 1.328125 -2.921875 Z M 1.328125 -2.921875 "/></g></g></g></svg>